<mxfile host="app.diagrams.net" agent="Mozilla/5.0 (Windows NT 10.0; Win64; x64) AppleWebKit/537.36 (KHTML, like Gecko) Chrome/128.0.0.0 Safari/537.36" version="24.7.12">
  <diagram name="Page-1" id="IX7Af-IbAU1R5Llb2M2s">
    <mxGraphModel dx="1050" dy="533" grid="1" gridSize="10" guides="1" tooltips="1" connect="1" arrows="1" fold="1" page="1" pageScale="1" pageWidth="850" pageHeight="1100" math="0" shadow="0">
      <root>
        <mxCell id="0" />
        <mxCell id="1" parent="0" />
        <mxCell id="NXpKtUCdHKC-RFBf76hA-1" value="&lt;h2 style=&quot;&quot;&gt;&lt;u style=&quot;background-color: initial; font-size: 12px; font-weight: normal;&quot;&gt;&lt;i&gt;hello world&lt;/i&gt;&lt;/u&gt;&lt;br&gt;&lt;/h2&gt;" style="rounded=1;whiteSpace=wrap;html=1;fillColor=#f5f5f5;strokeColor=#666666;fontColor=#333333;direction=east;flipH=1;flipV=0;container=0;align=center;" vertex="1" parent="1">
          <mxGeometry x="200" y="100" width="120" height="60" as="geometry" />
        </mxCell>
        <mxCell id="NXpKtUCdHKC-RFBf76hA-2" value="" style="curved=1;endArrow=classic;html=1;rounded=0;exitX=1;exitY=0.75;exitDx=0;exitDy=0;" edge="1" parent="1" source="NXpKtUCdHKC-RFBf76hA-1">
          <mxGeometry width="50" height="50" relative="1" as="geometry">
            <mxPoint x="400" y="300" as="sourcePoint" />
            <mxPoint x="400" y="290" as="targetPoint" />
            <Array as="points">
              <mxPoint x="270" y="200" />
              <mxPoint x="400" y="190" />
              <mxPoint x="290" y="290" />
              <mxPoint x="340" y="320" />
            </Array>
          </mxGeometry>
        </mxCell>
        <mxCell id="NXpKtUCdHKC-RFBf76hA-3" value="Actor" style="shape=umlActor;verticalLabelPosition=bottom;verticalAlign=top;html=1;outlineConnect=0;" vertex="1" parent="1">
          <mxGeometry x="410" y="110" width="140" height="200" as="geometry" />
        </mxCell>
        <mxCell id="NXpKtUCdHKC-RFBf76hA-4" value="" style="shape=flexArrow;endArrow=classic;html=1;rounded=0;" edge="1" parent="1">
          <mxGeometry width="50" height="50" relative="1" as="geometry">
            <mxPoint x="550" y="180" as="sourcePoint" />
            <mxPoint x="600" y="130" as="targetPoint" />
          </mxGeometry>
        </mxCell>
        <mxCell id="NXpKtUCdHKC-RFBf76hA-5" value="" style="shape=flexArrow;endArrow=classic;html=1;rounded=0;" edge="1" parent="1">
          <mxGeometry width="50" height="50" relative="1" as="geometry">
            <mxPoint x="410" y="180" as="sourcePoint" />
            <mxPoint x="400" y="120" as="targetPoint" />
          </mxGeometry>
        </mxCell>
        <mxCell id="NXpKtUCdHKC-RFBf76hA-6" value="" style="shape=flexArrow;endArrow=classic;html=1;rounded=0;" edge="1" parent="1">
          <mxGeometry width="50" height="50" relative="1" as="geometry">
            <mxPoint x="479.5" y="240" as="sourcePoint" />
            <mxPoint x="479.5" y="310" as="targetPoint" />
          </mxGeometry>
        </mxCell>
        <mxCell id="NXpKtUCdHKC-RFBf76hA-7" value="" style="endArrow=classic;html=1;rounded=0;" edge="1" parent="1">
          <mxGeometry relative="1" as="geometry">
            <mxPoint x="90" y="330" as="sourcePoint" />
            <mxPoint x="190" y="330" as="targetPoint" />
          </mxGeometry>
        </mxCell>
        <mxCell id="NXpKtUCdHKC-RFBf76hA-8" value="" style="shape=message;html=1;outlineConnect=0;" vertex="1" parent="NXpKtUCdHKC-RFBf76hA-7">
          <mxGeometry width="20" height="14" relative="1" as="geometry">
            <mxPoint x="-10" y="-7" as="offset" />
          </mxGeometry>
        </mxCell>
        <mxCell id="NXpKtUCdHKC-RFBf76hA-15" style="edgeStyle=orthogonalEdgeStyle;rounded=0;orthogonalLoop=1;jettySize=auto;html=1;exitX=1;exitY=0.3;exitDx=0;exitDy=0;" edge="1" parent="1" source="NXpKtUCdHKC-RFBf76hA-8">
          <mxGeometry relative="1" as="geometry">
            <mxPoint x="180" y="90" as="targetPoint" />
          </mxGeometry>
        </mxCell>
        <mxCell id="NXpKtUCdHKC-RFBf76hA-16" value="" style="whiteSpace=wrap;html=1;shape=mxgraph.basic.loud_callout" vertex="1" parent="1">
          <mxGeometry x="270" y="390" width="100" height="60" as="geometry" />
        </mxCell>
        <mxCell id="NXpKtUCdHKC-RFBf76hA-17" value="" style="verticalLabelPosition=bottom;verticalAlign=top;html=1;shape=mxgraph.basic.smiley" vertex="1" parent="1">
          <mxGeometry x="430" y="70" width="100" height="100" as="geometry" />
        </mxCell>
        <mxCell id="NXpKtUCdHKC-RFBf76hA-18" value="" style="verticalLabelPosition=bottom;verticalAlign=top;html=1;shape=mxgraph.basic.sun" vertex="1" parent="1">
          <mxGeometry x="640" y="20" width="100" height="100" as="geometry" />
        </mxCell>
        <mxCell id="NXpKtUCdHKC-RFBf76hA-19" value="" style="verticalLabelPosition=bottom;verticalAlign=top;html=1;shape=mxgraph.basic.star" vertex="1" parent="1">
          <mxGeometry x="200" y="180" width="100" height="95" as="geometry" />
        </mxCell>
      </root>
    </mxGraphModel>
  </diagram>
</mxfile>
